<?xml version="1.0" standalone="no"?>
<!DOCTYPE svg PUBLIC "-//W3C//DTD SVG 20010904//EN"
 "http://www.w3.org/TR/2001/REC-SVG-20010904/DTD/svg10.dtd">
<svg version="1.0" xmlns="http://www.w3.org/2000/svg"
 width="551.000000pt" height="453.000000pt" viewBox="0 0 551.000000 453.000000"
 preserveAspectRatio="xMidYMid meet">

<g transform="translate(0.000000,453.000000) scale(0.100000,-0.100000)"
fill="#225d1b" stroke="none">
<path d="M4140 4452 c0 -4 21 -28 46 -52 25 -25 91 -106 147 -180 56 -74 147
-180 202 -235 105 -105 242 -221 251 -213 2 3 -15 62 -40 132 -99 285 -222
411 -509 525 -81 32 -97 36 -97 23z"/>
<path d="M1145 4365 c-74 -36 -154 -84 -185 -111 -62 -53 -154 -169 -180 -229
-24 -53 -93 -276 -87 -281 2 -3 35 21 73 53 146 123 235 218 342 366 61 84
129 170 152 192 99 96 65 99 -115 10z"/>
<path d="M4692 4163 c25 -27 57 -70 71 -98 20 -41 115 -370 135 -465 4 -20
-10 -11 -74 51 -44 41 -95 86 -114 99 -129 89 -227 169 -267 221 -26 32 -47
58 -49 56 -9 -9 24 -114 56 -183 48 -100 137 -198 299 -329 126 -101 214 -187
255 -249 l26 -39 0 275 c0 299 -6 346 -58 442 -40 74 -161 197 -231 235 -88
47 -105 41 -49 -16z"/>
<path d="M735 4147 c-77 -41 -192 -156 -228 -229 -46 -92 -70 -232 -63 -368 4
-63 9 -170 13 -237 l6 -122 37 57 c42 64 151 172 251 250 138 108 267 272 308
394 36 106 25 127 -27 53 -18 -25 -104 -102 -202 -180 -159 -126 -240 -208
-255 -255 -4 -11 -10 -20 -15 -20 -5 0 -2 21 6 48 33 107 65 223 88 321 31
128 71 215 126 275 50 54 38 58 -45 13z"/>
<path d="M5060 3854 c0 -6 9 -29 20 -52 30 -61 36 -136 29 -337 -4 -99 -7
-249 -8 -333 -1 -99 -5 -151 -11 -147 -5 3 -10 14 -10 24 0 10 -16 50 -36 90
-30 61 -62 97 -222 256 -103 102 -188 185 -190 185 -8 0 14 -86 45 -170 42
-114 73 -167 204 -347 147 -202 171 -244 235 -423 10 -26 31 29 68 176 19 76
47 172 61 213 48 141 54 311 18 491 -19 95 -51 174 -107 264 -43 69 -96 129
-96 110z"/>
<path d="M371 3778 c-55 -75 -131 -235 -148 -311 -20 -90 -22 -310 -4 -391 7
-33 37 -125 66 -205 29 -80 61 -183 71 -228 10 -46 21 -79 25 -75 4 4 14 32
24 62 9 30 33 84 53 120 31 57 71 117 244 372 68 100 165 354 144 376 -4 4
-24 -13 -44 -38 -20 -24 -50 -55 -67 -69 -16 -14 -75 -70 -130 -126 -82 -82
-108 -115 -143 -185 -23 -47 -49 -110 -57 -140 -15 -54 -15 -52 -9 85 5 110 1
183 -17 339 -25 221 -20 321 20 411 25 57 12 58 -28 3z"/>
<path d="M5347 3068 c-9 -109 -46 -257 -92 -361 -59 -132 -112 -278 -126 -342
-12 -58 -29 -95 -29 -65 0 8 -5 56 -10 105 -10 105 -54 217 -128 329 -25 38
-72 121 -104 183 -50 100 -58 111 -64 88 -20 -81 44 -379 168 -785 16 -51 20
-93 20 -193 0 -70 3 -129 7 -131 12 -7 306 403 338 471 62 134 99 342 90 508
-6 108 -30 232 -51 260 -11 15 -14 6 -19 -67z"/>
<path d="M126 3100 c-17 -39 -37 -166 -43 -265 -15 -287 81 -558 278 -781 33
-38 79 -97 102 -131 23 -35 44 -63 48 -63 3 0 9 64 12 143 4 78 11 158 16 177
5 19 34 121 65 227 59 203 96 414 96 538 l-1 70 -20 -25 c-48 -57 -227 -443
-254 -545 -8 -33 -15 -101 -15 -153 0 -98 -13 -116 -24 -35 -11 77 -54 229
-77 275 -12 23 -35 74 -51 113 -89 215 -99 247 -112 358 -7 62 -16 105 -20 97z"/>
<path d="M4823 2424 c-41 -73 -113 -495 -113 -666 0 -91 -51 -336 -86 -413
-10 -22 -21 -48 -26 -57 -4 -10 -3 -18 2 -18 5 0 109 67 232 149 302 202 418
318 513 516 52 106 85 252 85 374 0 86 -13 108 -24 40 -10 -60 -58 -161 -109
-226 -25 -32 -102 -119 -172 -193 -70 -74 -147 -164 -173 -200 -77 -110 -135
-186 -129 -170 3 8 17 43 32 77 55 134 61 265 20 483 -15 80 -30 186 -34 235
-5 76 -8 87 -18 69z"/>
<path d="M665 2322 c-3 -31 -18 -113 -31 -182 -23 -110 -25 -145 -22 -295 3
-168 3 -171 36 -239 18 -38 30 -71 28 -73 -3 -3 -22 21 -43 54 -57 88 -140
188 -265 319 -182 191 -231 261 -270 389 l-18 60 4 -135 c5 -153 21 -221 74
-330 74 -152 186 -274 372 -407 127 -91 382 -255 387 -249 3 2 -12 41 -32 86
-42 93 -68 207 -85 372 -25 251 -43 388 -61 478 -22 113 -46 197 -58 204 -5 3
-12 -20 -16 -52z"/>
<path d="M4572 1793 c-102 -142 -161 -261 -230 -463 -33 -96 -71 -201 -85
-232 -33 -74 -106 -185 -146 -222 -17 -17 -31 -34 -31 -39 0 -10 5 -9 125 21
44 11 127 28 184 37 190 31 322 87 478 203 148 111 253 234 317 374 59 126 89
261 35 156 -25 -49 -128 -160 -203 -217 -28 -22 -137 -84 -242 -139 -196 -102
-307 -171 -388 -242 -76 -65 -73 -57 22 61 47 57 100 154 125 231 9 25 32 136
51 246 20 111 43 222 52 247 30 89 11 82 -64 -22z"/>
<path d="M850 1848 c0 -8 6 -33 14 -55 18 -51 66 -284 66 -320 0 -49 50 -216
87 -293 28 -57 55 -93 112 -147 74 -72 86 -95 27 -50 -123 93 -284 193 -425
263 -252 126 -348 197 -435 324 l-38 55 7 -40 c9 -53 72 -187 126 -266 86
-128 250 -270 394 -343 100 -50 175 -73 332 -100 76 -14 167 -32 203 -40 36
-9 76 -16 89 -16 22 0 21 3 -18 45 -87 95 -143 201 -217 414 -72 205 -146 354
-234 471 -87 115 -90 118 -90 98z"/>
<path d="M4198 1271 c-40 -32 -155 -135 -255 -229 -100 -93 -204 -186 -231
-206 -68 -50 -187 -104 -260 -119 -75 -15 -85 -24 -36 -31 22 -4 82 -15 134
-27 52 -11 158 -34 235 -50 178 -39 390 -49 503 -25 148 31 292 109 413 224
60 56 158 186 148 197 -2 2 -33 -22 -69 -52 -114 -98 -238 -139 -500 -168 -80
-8 -217 -24 -304 -35 -88 -11 -167 -20 -175 -20 -9 0 25 20 74 44 50 23 105
55 123 71 49 41 128 163 190 294 30 64 66 133 79 154 13 20 19 37 14 37 -5 0
-43 -26 -83 -59z"/>
<path d="M1220 1305 c0 -3 20 -40 44 -83 24 -42 70 -126 102 -186 92 -169 190
-263 314 -296 74 -21 28 -23 -123 -6 -78 8 -221 23 -317 31 -96 9 -204 23
-240 31 -91 23 -205 77 -273 131 -32 25 -60 43 -62 41 -8 -8 81 -122 136 -174
164 -157 328 -230 535 -241 150 -8 267 8 529 72 121 30 229 56 240 58 16 3 14
5 -10 12 -56 14 -259 97 -295 120 -19 12 -87 71 -150 130 -293 275 -430 390
-430 360z"/>
<path d="M2930 694 c-14 -3 -55 -12 -93 -20 -67 -16 -84 -16 -187 6 -87 19
-338 7 -428 -20 -91 -27 -256 -89 -382 -142 -243 -105 -429 -114 -630 -33 -46
19 -87 32 -90 28 -9 -9 103 -101 180 -146 112 -65 169 -86 286 -103 101 -15
109 -15 212 6 146 29 230 68 428 197 93 61 195 120 228 132 57 21 159 32 173
18 8 -9 16 -4 -107 -71 -148 -82 -346 -231 -443 -334 l-28 -29 47 -42 c26 -22
52 -41 58 -41 7 0 75 62 151 138 137 135 247 223 373 297 l63 37 51 -17 c28
-9 67 -27 87 -39 84 -54 234 -178 348 -288 68 -66 129 -118 140 -118 19 0 93
68 93 86 0 39 -303 268 -480 362 -106 57 -105 67 8 60 80 -4 143 -32 257 -114
232 -167 385 -223 600 -224 162 0 276 35 412 128 68 46 153 120 153 132 0 5
-33 -7 -74 -25 -103 -48 -153 -58 -296 -58 -151 -1 -246 18 -375 75 -282 125
-398 158 -575 163 -74 2 -146 2 -160 -1z"/>
</g>
</svg>
