<?xml version="1.0" standalone="no"?>
<!DOCTYPE svg PUBLIC "-//W3C//DTD SVG 20010904//EN"
 "http://www.w3.org/TR/2001/REC-SVG-20010904/DTD/svg10.dtd">
<svg version="1.0" xmlns="http://www.w3.org/2000/svg"
 width="512.000000pt" height="512.000000pt" viewBox="0 0 512.000000 512.000000"
 preserveAspectRatio="xMidYMid meet">

<g transform="translate(0.000000,512.000000) scale(0.100000,-0.100000)"
fill="#ffffff" stroke="none">
<path d="M2342 4999 c-198 -18 -431 -69 -612 -135 -136 -50 -398 -182 -515
-260 -273 -182 -517 -426 -699 -699 -79 -118 -210 -379 -261 -518 -89 -245
-145 -562 -145 -827 0 -265 56 -582 145 -827 51 -139 182 -401 260 -518 326
-489 818 -851 1377 -1009 489 -139 1028 -121 1498 50 137 50 399 182 515 260
558 372 941 948 1061 1594 147 796 -103 1603 -675 2177 -120 119 -247 224
-386 318 -115 77 -376 208 -518 260 -318 116 -697 165 -1045 134z m553 -164
c244 -38 451 -103 670 -210 686 -334 1152 -971 1272 -1735 24 -160 24 -500 0
-660 -159 -1017 -930 -1788 -1947 -1947 -160 -24 -500 -24 -660 0 -161 26
-365 80 -500 133 -790 313 -1330 1001 -1452 1849 -19 136 -16 484 5 625 130
830 668 1505 1447 1814 181 71 415 126 645 150 83 9 424 -3 520 -19z"/>
<path d="M2452 4272 c-29 -11 -70 -33 -90 -49 -46 -37 -99 -113 -112 -163 -7
-26 -10 -296 -8 -797 l3 -758 27 -50 c32 -60 87 -114 148 -146 38 -20 60 -24
140 -24 80 0 102 4 140 24 61 32 116 86 148 146 l27 50 0 780 0 780 -23 43
c-59 111 -154 173 -275 179 -53 3 -86 -1 -125 -15z"/>
<path d="M1500 3811 c-133 -41 -325 -261 -458 -526 -174 -349 -222 -748 -136
-1133 134 -600 593 -1087 1181 -1256 180 -51 254 -61 473 -61 173 0 222 4 318
23 163 33 279 73 437 152 223 111 396 247 548 430 551 664 520 1632 -73 2254
-84 88 -142 118 -240 124 -61 3 -86 0 -135 -19 -121 -45 -205 -168 -205 -299
0 -89 29 -153 114 -252 91 -106 125 -156 172 -248 199 -398 129 -875 -175
-1194 -146 -152 -299 -243 -506 -298 -111 -31 -382 -33 -495 -4 -194 49 -343
131 -484 267 -329 315 -417 798 -222 1210 39 84 94 165 179 264 97 112 121
169 115 272 -11 176 -147 305 -321 302 -34 0 -73 -4 -87 -8z"/>
</g>
</svg>
