<?xml version="1.0" standalone="no"?>
<!DOCTYPE svg PUBLIC "-//W3C//DTD SVG 20010904//EN"
 "http://www.w3.org/TR/2001/REC-SVG-20010904/DTD/svg10.dtd">
<svg version="1.0" xmlns="http://www.w3.org/2000/svg"
 width="512.000000pt" height="512.000000pt" viewBox="0 0 512.000000 512.000000"
 preserveAspectRatio="xMidYMid meet">

<g transform="translate(0.000000,512.000000) scale(0.100000,-0.100000)"
fill="#ff0000" stroke="none">
<path d="M1795 5111 c-45 -11 -82 -38 -107 -80 -21 -33 -23 -50 -26 -213 l-4
-178 106 0 106 0 0 135 0 135 690 0 690 0 0 -135 0 -135 106 0 106 0 -4 178
c-3 164 -5 180 -26 214 -13 20 -40 47 -60 60 l-37 23 -755 2 c-415 0 -769 -2
-785 -6z"/>
<path d="M389 4413 c-54 -8 -132 -66 -165 -120 -39 -65 -44 -94 -44 -260 l0
-133 2381 0 2381 0 -4 163 c-3 133 -7 168 -22 197 -33 64 -63 95 -117 125
l-54 30 -2165 1 c-1191 1 -2177 -1 -2191 -3z"/>
<path d="M550 3664 c0 -8 131 -813 291 -1787 195 -1187 296 -1782 307 -1801 9
-16 30 -38 45 -50 l28 -21 1339 0 1339 0 28 21 c15 11 36 36 46 55 12 23 108
584 307 1801 160 972 290 1774 290 1782 0 15 -190 16 -2010 16 -1825 0 -2010
-1 -2010 -16z m1074 -786 c26 -27 34 -44 39 -88 3 -30 41 -476 83 -991 85
-1025 84 -983 23 -1014 -15 -8 -44 -15 -64 -15 -46 0 -91 42 -99 91 -3 19 -42
467 -86 997 -74 881 -79 965 -65 992 21 40 53 60 98 60 31 0 46 -7 71 -32z
m1008 3 l33 -29 0 -1012 0 -1012 -33 -29 c-24 -22 -42 -29 -72 -29 -30 0 -48
7 -72 29 l-33 29 0 1012 0 1012 33 29 c24 22 42 29 72 29 30 0 48 -7 72 -29z
m996 13 c12 -8 29 -28 37 -44 14 -27 8 -112 -65 -992 -44 -530 -83 -978 -86
-997 -8 -49 -53 -91 -99 -91 -20 0 -49 7 -64 15 -61 31 -62 -11 23 1014 42
515 80 961 83 991 8 73 51 120 110 120 21 0 49 -7 61 -16z"/>
</g>
</svg>
