<?xml version="1.0" standalone="no"?>
<!DOCTYPE svg PUBLIC "-//W3C//DTD SVG 20010904//EN"
 "http://www.w3.org/TR/2001/REC-SVG-20010904/DTD/svg10.dtd">
<svg version="1.0" xmlns="http://www.w3.org/2000/svg"
 width="512.000000pt" height="512.000000pt" viewBox="0 0 512.000000 512.000000"
 preserveAspectRatio="xMidYMid meet">

<g transform="translate(0.000000,512.000000) scale(0.100000,-0.100000)"
fill="#fbca38" stroke="none">
<path d="M2375 4789 c-625 -64 -1154 -327 -1506 -747 -690 -825 -707 -2076
-39 -2917 395 -497 1049 -799 1730 -799 604 1 1184 233 1581 634 337 340 550
787 620 1300 17 124 17 478 1 600 -84 599 -363 1113 -790 1453 -169 136 -420
274 -627 347 -121 42 -344 95 -485 115 -145 20 -368 27 -485 14z m460 -334
c592 -89 1059 -390 1350 -870 293 -483 357 -1128 168 -1685 -131 -387 -392
-728 -723 -942 -310 -202 -693 -313 -1075 -311 -303 1 -585 65 -861 197 -208
100 -358 209 -520 378 -333 349 -514 819 -514 1338 0 665 300 1248 821 1598
304 204 748 329 1124 316 72 -2 175 -11 230 -19z"/>
<path d="M1702 3493 c-66 -32 -105 -117 -88 -190 5 -19 124 -145 364 -386
l357 -357 -352 -353 c-193 -193 -356 -362 -362 -374 -16 -31 -14 -90 5 -130
32 -67 117 -107 191 -89 19 5 145 124 386 364 l357 357 353 -352 c193 -193
362 -356 374 -362 31 -16 90 -14 130 5 67 32 107 117 89 191 -5 19 -124 145
-364 386 l-357 357 357 358 c240 240 359 366 364 385 18 74 -22 159 -89 191
-40 19 -99 21 -130 5 -12 -6 -181 -169 -374 -362 l-353 -352 -352 352 c-194
193 -363 356 -375 362 -31 16 -93 13 -131 -6z"/>
</g>
</svg>
